<?xml version="1.0" encoding="UTF-8" standalone="no"?>
<!-- Generator: Adobe Illustrator 16.0.0, SVG Export Plug-In . SVG Version: 6.00 Build 0)  -->

<svg
   xmlns:dc="http://purl.org/dc/elements/1.1/"
   xmlns:cc="http://creativecommons.org/ns#"
   xmlns:rdf="http://www.w3.org/1999/02/22-rdf-syntax-ns#"
   xmlns:svg="http://www.w3.org/2000/svg"
   xmlns="http://www.w3.org/2000/svg"
   xmlns:sodipodi="http://sodipodi.sourceforge.net/DTD/sodipodi-0.dtd"
   xmlns:inkscape="http://www.inkscape.org/namespaces/inkscape"
   version="1.1"
   id="Capa_1"
   x="0px"
   y="0px"
   width="512px"
   height="512px"
   viewBox="0 0 485.213 485.212"
   style="enable-background:new 0 0 485.213 485.212;"
   xml:space="preserve"
   inkscape:version="0.48.4 r9939"
   sodipodi:docname="map-marker.svg"><metadata
     id="metadata41"><rdf:RDF><cc:Work
         rdf:about=""><dc:format>image/svg+xml</dc:format><dc:type
           rdf:resource="http://purl.org/dc/dcmitype/StillImage" /></cc:Work></rdf:RDF></metadata><defs
     id="defs39" /><sodipodi:namedview
     pagecolor="#ffffff"
     bordercolor="#666666"
     borderopacity="1"
     objecttolerance="10"
     gridtolerance="10"
     guidetolerance="10"
     inkscape:pageopacity="0"
     inkscape:pageshadow="2"
     inkscape:window-width="1325"
     inkscape:window-height="744"
     id="namedview37"
     showgrid="false"
     inkscape:zoom="0.4609375"
     inkscape:cx="-208.66111"
     inkscape:cy="181.03052"
     inkscape:window-x="41"
     inkscape:window-y="24"
     inkscape:window-maximized="1"
     inkscape:current-layer="Capa_1" /><g
     id="g3"
     style="opacity:1"><path
       d="M242.606,0C142.124,0,60.651,81.473,60.651,181.955c0,40.928,13.504,78.659,36.31,109.075l145.646,194.183L388.252,291.03   c22.808-30.416,36.31-68.146,36.31-109.075C424.562,81.473,343.089,0,242.606,0z M242.606,303.257   c-66.989,0-121.302-54.311-121.302-121.302c0-66.989,54.313-121.304,121.302-121.304c66.991,0,121.302,54.315,121.302,121.304   C363.908,248.947,309.598,303.257,242.606,303.257z"
       fill="#0088cc"
       id="path5" /></g><g
     id="g7" /><g
     id="g9" /><g
     id="g11" /><g
     id="g13" /><g
     id="g15" /><g
     id="g17" /><g
     id="g19" /><g
     id="g21" /><g
     id="g23" /><g
     id="g25" /><g
     id="g27" /><g
     id="g29" /><g
     id="g31" /><g
     id="g33" /><g
     id="g35" /><path
     sodipodi:type="arc"
     style="fill:#ffffff;fill-opacity:1;stroke:none"
     id="path3018"
     sodipodi:cx="-505.49152"
     sodipodi:cy="143.18645"
     sodipodi:rx="114.98305"
     sodipodi:ry="114.98305"
     d="m -390.50847,143.18645 a 114.98305,114.98305 0 1 1 -229.96609,0 114.98305,114.98305 0 1 1 229.96609,0 z"
     transform="matrix(1.1183706,0,0,1.1183706,807.93335,24.072631)" /></svg>
